<svg width="20" height="19" viewBox="0 0 20 19" fill="none" xmlns="http://www.w3.org/2000/svg">
<path d="M18.4375 8.9375H16.7219C16.4498 5.66375 13.8363 3.05023 10.5625 2.77813V1.0625C10.5625 0.913316 10.5032 0.770242 10.3977 0.664752C10.2923 0.559263 10.1492 0.5 10 0.5C9.85082 0.5 9.70774 0.559263 9.60225 0.664752C9.49676 0.770242 9.4375 0.913316 9.4375 1.0625V2.77813C6.16375 3.05023 3.55023 5.6648 3.27813 8.9375H1.5625C1.41332 8.9375 1.27024 8.99676 1.16475 9.10225C1.05926 9.20774 1 9.35082 1 9.5C1 9.64918 1.05926 9.79226 1.16475 9.89775C1.27024 10.0032 1.41332 10.0625 1.5625 10.0625H3.27813C3.55023 13.3363 6.16375 15.9498 9.4375 16.2219V17.9375C9.4375 18.0867 9.49676 18.2298 9.60225 18.3352C9.70774 18.4407 9.85082 18.5 10 18.5C10.1492 18.5 10.2923 18.4407 10.3977 18.3352C10.5032 18.2298 10.5625 18.0867 10.5625 17.9375V16.2219C13.8363 15.9498 16.4498 13.3363 16.7219 10.0625H18.4375C18.7479 10.0625 19 9.81148 19 9.5C19 9.19063 18.7479 8.9375 18.4375 8.9375ZM10 15.125C6.89852 15.125 4.375 12.6015 4.375 9.5C4.375 6.39852 6.89852 3.875 10 3.875C13.1015 3.875 15.625 6.39852 15.625 9.5C15.625 12.6015 13.1015 15.125 10 15.125Z" fill="white" stroke="white"/>
</svg>
